<?xml version="1.0" standalone="no"?>
<!DOCTYPE svg PUBLIC "-//W3C//DTD SVG 20010904//EN"
 "http://www.w3.org/TR/2001/REC-SVG-20010904/DTD/svg10.dtd">
<svg version="1.0" xmlns="http://www.w3.org/2000/svg"
 width="200.000000pt" height="200.000000pt" viewBox="0 0 200.000000 200.000000"
 preserveAspectRatio="xMidYMid meet">

<g transform="translate(0.000000,200.000000) scale(0.100000,-0.100000)"
fill="#000000" stroke="none">
<path d="M0 1000 l0 -1000 1000 0 1000 0 0 1000 0 1000 -1000 0 -1000 0 0
-1000z m494 212 c0 -12 -1 -44 -2 -72 -2 -64 -22 -66 -22 -2 0 26 -5 53 -12
60 -8 8 -8 15 2 27 17 21 35 14 34 -13z m-127 -49 c3 -10 22 -35 41 -55 20
-21 31 -38 26 -38 -6 0 -23 14 -39 30 -16 17 -34 30 -40 30 -17 0 -34 21 -28
36 7 20 32 17 40 -3z m267 8 c9 -14 -5 -41 -21 -41 -8 0 -28 -13 -45 -30 -43
-44 -59 -37 -16 8 19 20 38 45 41 55 7 18 32 23 41 8z m265 -121 c33 -77 35
-119 4 -72 -21 31 -98 32 -108 2 -3 -11 -13 -20 -22 -20 -17 0 -18 -2 27 98
21 46 38 72 49 72 11 0 28 -27 50 -80z m190 48 c14 -25 14 -29 -6 -55 -21 -29
-21 -29 -1 -56 17 -23 17 -27 4 -27 -9 0 -23 11 -32 25 -10 15 -26 25 -40 25
-19 0 -24 -5 -24 -25 0 -16 -6 -25 -15 -25 -12 0 -15 16 -15 85 l0 86 57 -3
c50 -3 59 -6 72 -30z m161 22 c0 -5 -11 -10 -25 -10 -24 0 -25 -2 -25 -75 0
-59 -3 -75 -15 -75 -11 0 -15 17 -17 73 -3 70 -4 72 -30 75 -56 7 -26 22 42
22 40 0 70 -4 70 -10z m58 -72 c-2 -54 -7 -83 -15 -86 -10 -3 -13 18 -13 82 0
71 3 86 15 86 13 0 15 -14 13 -82z m72 -3 c0 -69 -3 -85 -15 -85 -12 0 -15 16
-15 85 0 69 3 85 15 85 12 0 15 -16 15 -85z m70 43 l0 -42 43 42 c51 50 86 58
38 8 l-33 -34 37 -48 c45 -60 27 -75 -22 -19 -27 32 -35 36 -48 25 -8 -7 -15
-23 -15 -36 0 -15 -6 -24 -15 -24 -12 0 -15 16 -15 85 0 69 3 85 15 85 11 0
15 -11 15 -42z m-932 -30 c26 -26 0 -88 -36 -88 -40 0 -67 61 -40 88 15 15 61
15 76 0z m-213 -18 c3 -5 32 -10 63 -10 75 0 55 -16 -30 -23 -61 -6 -68 -4
-68 12 0 29 22 42 35 21z m383 -18 c3 -21 1 -21 -65 -15 -86 7 -107 23 -31 23
31 0 60 5 63 11 10 16 30 5 33 -19z m-248 -50 c0 -4 -16 -23 -35 -42 -19 -19
-35 -39 -35 -46 0 -17 -26 -24 -39 -11 -18 18 -13 27 18 38 16 6 39 23 51 40
22 28 40 38 40 21z m130 -27 c18 -19 36 -32 40 -30 4 3 13 -2 20 -10 10 -12
10 -18 0 -30 -18 -22 -29 -19 -40 11 -6 14 -23 37 -40 51 -29 24 -39 43 -22
43 4 0 23 -16 42 -35z m-80 -24 c0 -21 3 -52 6 -70 5 -24 2 -32 -11 -37 -20
-8 -39 16 -25 30 6 6 10 34 10 63 0 29 5 53 10 53 6 0 10 -17 10 -39z"/>
<path d="M831 1067 c-15 -38 -15 -37 14 -37 28 0 32 17 11 46 -14 18 -15 18
-25 -9z"/>
<path d="M990 1074 c0 -35 1 -35 37 -32 28 2 39 8 42 22 4 23 -24 46 -56 46
-20 0 -23 -5 -23 -36z"/>
</g>
</svg>
